<?xml version="1.0" encoding="utf-8"?>
<!-- Generator: Adobe Illustrator 21.0.0, SVG Export Plug-In . SVG Version: 6.00 Build 0)  -->
<svg version="1.1" id="레이어_1" xmlns="http://www.w3.org/2000/svg" xmlns:xlink="http://www.w3.org/1999/xlink" x="0px"
	 y="0px" viewBox="0 0 30 30" style="enable-background:new 0 0 30 30;" xml:space="preserve">
<style type="text/css">
	.st0{fill:none;}
	.st1{fill:#F6F4F1;}
</style>
<g>
	<path class="st0" d="M0,0"/>
	<circle class="st1" cx="15" cy="15" r="15"/>
	<path d="M17.8,10.5H15c-0.3,0-0.7,0.2-0.7,0.9v8.3l-1.9-2.1c-0.1-0.1-0.2-0.1-0.3,0s-0.1,0.2,0,0.3l2.4,2.7l2.4-2.7
		c0.1-0.1,0.1-0.2,0-0.3s-0.2-0.1-0.3,0l-1.8,2.1v-8.3c0-0.4,0.2-0.5,0.3-0.5h2.8c0.1,0,0.2-0.1,0.2-0.2
		C18,10.5,17.9,10.5,17.8,10.5z"/>
</g>
</svg>
